<?xml version="1.0" encoding="utf-8"?>
<!-- Generator: Adobe Illustrator 17.0.0, SVG Export Plug-In . SVG Version: 6.00 Build 0)  -->
<!DOCTYPE svg PUBLIC "-//W3C//DTD SVG 1.1//EN" "http://www.w3.org/Graphics/SVG/1.1/DTD/svg11.dtd">
<svg version="1.1" id="Layer_1" xmlns="http://www.w3.org/2000/svg" xmlns:xlink="http://www.w3.org/1999/xlink" x="0px" y="0px"
	 width="1162.132px" height="221.546px" viewBox="0 0 1162.132 221.546" enable-background="new 0 0 1162.132 221.546"
	 xml:space="preserve">
	 <!--<style type="text/css">
    <![CDATA[
     * { fill: rgba(255,255,255,1); }
    ]]>
  </style>-->
<g>
	<path d="M370.785,12.123h37.885l57.28,183.056l22.428,4.546v18.486h-76.982v-19.397l23.338-3.335l-10.305-33.944h-70.616
		l-10.305,33.944l23.338,3.335v19.397h-76.375v-18.486l22.428-4.245L370.785,12.123z M417.762,136.686l-8.487-28.187
		c-8.181-27.881-17.275-59.097-20.001-70.009h-0.607c-3.335,13.336-12.123,44.856-20.003,70.313l-8.485,27.884H417.762z"/>
	<path d="M551.422,220.939c-16.368,0-31.823-2.427-48.491-7.878v-40.31h18.79l3.939,19.093c10.305,3.335,18.792,4.242,24.246,4.242
		c14.547,0,28.791-6.97,28.791-21.518c0-15.154-10.909-19.397-25.457-23.639c-23.035-6.669-45.46-14.851-45.46-43.946
		c0-25.156,21.214-42.431,51.52-42.431c12.125,0,27.277,2.425,40.007,6.669v36.065H580.82l-3.638-16.972
		c-4.242-1.214-9.698-2.121-14.851-2.121c-15.758,0-24.85,7.878-24.85,18.183c0,14.547,11.213,16.365,29.396,21.821
		c17.882,4.849,40.914,14.851,40.914,45.46C607.791,203.057,585.366,220.939,551.422,220.939z"/>
	<path d="M704.781,220.939c-45.763,0-72.13-28.791-72.13-77.89s28.791-77.89,71.526-77.89c9.698,0,23.942,2.425,33.337,4.849v43.339
		h-18.489l-3.636-20.304c-3.939-1.517-8.788-1.82-13.033-1.82c-21.518,0-38.186,18.186-38.186,51.826s14.851,51.826,41.218,51.826
		c9.092,0,21.214-2.728,29.702-5.759l6.364,25.459C730.847,217.604,715.39,220.939,704.781,220.939z"/>
	<path d="M763.585,143.05c0-49.098,27.58-78.496,68.798-78.496c40.914,0,68.492,29.398,68.492,78.496
		c0,48.795-27.578,78.496-68.492,78.496C791.165,221.546,763.585,191.844,763.585,143.05z M869.659,143.05
		c0-33.944-13.941-52.129-37.276-52.129c-23.641,0-37.279,18.186-37.279,52.129c0,33.337,13.637,52.129,37.279,52.129
		C855.719,195.179,869.659,176.387,869.659,143.05z"/>
	<path d="M943.01,25.156l-24.852-1.82V5.759L957.861,0h15.758v195.48l24.852,4.245v18.486h-80.314v-18.486l24.852-4.245V25.156z"/>
	<path d="M1128.494,218.818h-15.761l-3.942-15.761h-0.607c-20.605,12.727-27.575,18.489-43.336,18.489
		c-24.246,0-45.763-13.943-45.763-46.37c0-34.551,19.698-48.188,44.249-48.188c13.028,0,27.575,4.546,43.336,5.453v-16.062
		c0-20.911-9.092-26.67-28.187-26.67c-7.572,0-18.484,2.121-26.668,5.153l-3.636,16.669h-19.7V76.072
		c19.397-6.063,35.155-10.912,54.552-10.912c40.613,0,54.248,19.397,54.248,49.705v66.978c0,3.939,0.607,9.395,1.214,12.73
		l23.639,3.029v16.368L1128.494,218.818z M1106.67,150.02c-12.12-0.91-26.974-3.939-34.551-3.939
		c-13.334,0-23.336,6.97-23.336,26.974c0,14.848,7.274,26.064,24.248,26.064c11.213,0,14.848-3.638,33.638-13.941V150.02z"/>
	<g>
		<g>
			<line x1="42.518" y1="204.452" x2="237.395" y2="204.452"/>
			<rect x="42.519" y="191.11" width="194.876" height="26.687"/>
		</g>
		<g>
			<line x1="0" y1="144.402" x2="194.877" y2="144.402"/>
			<rect x="0.001" y="131.059" width="194.876" height="26.687"/>
		</g>
		<g>
			<line x1="42.518" y1="84.351" x2="237.395" y2="84.351"/>
			<rect x="42.519" y="71.009" width="194.876" height="26.687"/>
		</g>
		<g>
			<line x1="42.518" y1="25.091" x2="237.395" y2="25.091"/>
			<rect x="42.519" y="11.748" width="194.876" height="26.687"/>
		</g>
	</g>
</g>
<g>
</g>
<g>
</g>
<g>
</g>
<g>
</g>
<g>
</g>
<g>
</g>
</svg>
